<?xml version="1.0" encoding="UTF-8"?>
<svg version="1.1" xmlns="http://www.w3.org/2000/svg" width="512" height="512">
<path d="M0 0 C4.28738574 2.81312084 6.49667662 6.00644355 9.046875 10.40625 C9.41526993 11.03471329 9.78366486 11.66317657 10.16322327 12.3106842 C10.95479412 13.6634513 11.74194163 15.01881469 12.52505493 16.37649536 C14.19395086 19.26961142 15.88427902 22.15000006 17.57331848 25.03138733 C18.44176908 26.51343369 19.30910132 27.99613592 20.17533875 29.47947693 C24.30990105 36.55492053 28.54622975 43.56591831 32.8125 50.5625 C33.43157227 51.57957031 34.05064453 52.59664062 34.68847656 53.64453125 C35.62578613 55.18367188 35.62578613 55.18367188 36.58203125 56.75390625 C37.20209077 57.81453183 37.82215029 58.87515741 38.46099949 59.96792316 C40.27130651 62.96264233 42.283505 65.68856261 44.43639278 68.44567394 C56.93709408 85.30331803 56.98054625 101.09062163 56.66889584 121.14199698 C56.6138778 125.69469737 56.64124345 130.24707187 56.65776062 134.79997253 C56.67748094 143.68371552 56.62370932 152.56551425 56.54470844 161.44886724 C56.45578398 171.80829865 56.44457721 182.16739768 56.43692081 192.52715512 C56.42096588 211.01046943 56.34054408 229.49291884 56.22094727 247.97583008 C56.105129 265.89024097 56.02734242 283.8042319 55.99536133 301.71899414 C55.99337941 302.82443381 55.99139749 303.92987349 55.98935551 305.06881133 C55.9814772 309.51292716 55.97369047 313.95704313 55.96606684 318.40115939 C55.93396746 336.54661993 55.87323358 354.69200082 55.80727077 372.83736587 C55.79229047 376.96557664 55.77833014 381.09378894 55.76522374 385.22200608 C55.73022827 396.06188466 55.68567314 406.90158874 55.61368889 417.74129168 C55.58399473 422.2205615 55.55866116 426.69972754 55.54603195 431.17908096 C55.5342134 435.28246672 55.50846433 439.38552515 55.4717186 443.48876127 C55.46077095 444.96937049 55.45470941 446.45002602 55.45415247 447.9306756 C55.44292761 462.29045522 52.69291766 473.72177497 43 484.6875 C35.72411534 491.5555436 25.25192517 496.07531604 15.27661133 496.16113281 C14.36829056 496.17074036 13.45996979 496.1803479 12.52412415 496.19024658 C11.55323349 496.19449646 10.58234283 496.19874634 9.58203125 496.203125 C8.56960861 496.20882507 7.55718597 496.21452515 6.51408386 496.22039795 C4.37325072 496.22983043 2.23240318 496.23637496 0.09155273 496.24023438 C-3.15862876 496.24991402 -6.40817057 496.28094389 -9.65820312 496.3125 C-11.74478794 496.31903345 -13.83137725 496.32428258 -15.91796875 496.328125 C-16.87873825 496.3404718 -17.83950775 496.3528186 -18.82939148 496.36553955 C-30.73817426 496.32686393 -41.35261587 492.47794101 -49.9921875 484.05859375 C-51.93210293 481.83558062 -53.67639275 479.64721449 -55 477 C-82.01615346 476.88324158 -109.03226916 476.7950484 -136.04862404 476.74093914 C-148.59256037 476.71514841 -161.13634001 476.67998102 -173.68017578 476.62280273 C-184.61232302 476.57299469 -195.5443568 476.54071531 -206.47661436 476.52955753 C-212.26617501 476.52303444 -218.05541102 476.50768478 -223.84486771 476.47134972 C-229.29331738 476.43743163 -234.74130844 476.42693873 -240.18985367 476.43446159 C-242.19015494 476.43308519 -244.19047143 476.42312798 -246.19068146 476.40397263 C-248.92168121 476.37909997 -251.65094882 476.38507351 -254.38198853 476.39872742 C-255.17382872 476.38416321 -255.96566892 476.369599 -256.78150427 476.35459346 C-262.57950929 476.43296566 -264.80013995 478.06917378 -269 482 C-275.26445543 483.11108194 -279.26607233 480.65111695 -284.4375 477.5 C-285.16904297 477.07074219 -285.90058594 476.64148438 -286.65429688 476.19921875 C-288.44421563 475.14632537 -290.22326854 474.07499718 -292 473 C-292.34611328 474.75376953 -292.34611328 474.75376953 -292.69921875 476.54296875 C-293.02766419 478.09135439 -293.35714622 479.63952039 -293.6875 481.1875 C-293.83638672 481.95642578 -293.98527344 482.72535156 -294.13867188 483.51757812 C-294.30302734 484.26845703 -294.46738281 485.01933594 -294.63671875 485.79296875 C-294.84880981 486.82200317 -294.84880981 486.82200317 -295.06518555 487.87182617 C-296.45805312 491.04279161 -298.36532005 492.77055977 -301 495 C-304.03527832 495.63491821 -304.03527832 495.63491821 -307.45507812 495.64697266 C-308.73991089 495.66273346 -310.02474365 495.67849426 -311.34851074 495.69473267 C-312.74276592 495.68578259 -314.13701324 495.67552752 -315.53125 495.6640625 C-316.9694459 495.66743331 -318.40763901 495.67228814 -319.8458252 495.67855835 C-322.85533862 495.68591743 -325.86410841 495.6752569 -328.87353516 495.65185547 C-332.7241459 495.62336634 -336.57301423 495.63977577 -340.4235611 495.66971779 C-343.39199872 495.68781802 -346.36002571 495.68202068 -349.32847595 495.66907883 C-350.74779977 495.66575225 -352.16716131 495.66980564 -353.58644104 495.68147659 C-355.5725937 495.69422622 -357.55887772 495.67133509 -359.54492188 495.64697266 C-360.67345581 495.64299469 -361.80198975 495.63901672 -362.96472168 495.63491821 C-366.94023717 494.80332159 -368.44158792 493.07792394 -371 490 C-371.93481445 487.87182617 -371.93481445 487.87182617 -372.36328125 485.79296875 C-372.52763672 485.04208984 -372.69199219 484.29121094 -372.86132812 483.51757812 C-373.01021484 482.74865234 -373.15910156 481.97972656 -373.3125 481.1875 C-373.48072266 480.39923828 -373.64894531 479.61097656 -373.82226562 478.79882812 C-374.23154815 476.86935335 -374.61810408 474.93508155 -375 473 C-376.07378906 473.6496875 -377.14757812 474.299375 -378.25390625 474.96875 C-379.68963577 475.81329678 -381.12586023 476.65700256 -382.5625 477.5 C-383.26697266 477.92925781 -383.97144531 478.35851562 -384.69726562 478.80078125 C-389.24100365 481.43908075 -392.63995633 483.10939037 -398 482 C-399.77835083 480.69725037 -399.77835083 480.69725037 -401.66455078 478.98608398 C-402.36702438 478.35004242 -403.06949799 477.71400085 -403.79325867 477.0586853 C-410.09000679 471.18440243 -416.23154737 465.15569767 -422.35668945 459.10327148 C-424.0827139 457.40402482 -425.81586125 455.71198424 -427.5559082 454.02709961 C-430.0842536 451.5777427 -432.58896396 449.10626271 -435.08984375 446.62890625 C-435.86891586 445.88282608 -436.64798798 445.13674591 -437.45066833 444.36805725 C-443.35722443 438.43920112 -443.35722443 438.43920112 -444.11132812 433.74194336 C-444.00794086 430.26690687 -443.81870086 428.46292754 -442.12890625 425.5 C-441.51499023 424.38818359 -441.51499023 424.38818359 -440.88867188 423.25390625 C-440.45103516 422.51011719 -440.01339844 421.76632812 -439.5625 421 C-439.12873047 420.22527344 -438.69496094 419.45054687 -438.24804688 418.65234375 C-437.18380187 416.75775375 -436.09439964 414.87733272 -435 413 C-435.67546875 412.8774585 -436.3509375 412.75491699 -437.046875 412.62866211 C-452.26233832 409.82082487 -452.26233832 409.82082487 -455.59413147 406.32957458 C-457.41619388 403.31035182 -457.38697853 401.2674516 -457.40405273 397.75024414 C-457.41673691 396.4853566 -457.42942108 395.22046906 -457.44248962 393.91725159 C-457.44043804 392.53988481 -457.43744989 391.16251916 -457.43359375 389.78515625 C-457.43815653 388.36795298 -457.4434624 386.95075192 -457.44947815 385.53355408 C-457.4584063 382.565328 -457.45598997 379.59737102 -457.44604492 376.62915039 C-457.43455861 372.83144931 -457.45476164 369.03467852 -457.48396206 365.23709965 C-457.50233817 362.31076692 -457.50202884 359.38465653 -457.49632454 356.45828056 C-457.49617148 355.0584832 -457.50220348 353.65867063 -457.51461601 352.2589283 C-457.52954677 350.29905448 -457.51620814 348.33902745 -457.50170898 346.37915039 C-457.50154282 345.26536514 -457.50137665 344.1515799 -457.50120544 343.00404358 C-456.88666483 339.32071012 -455.57078112 337.65781039 -453 335 C-450.98535156 333.97338867 -450.98535156 333.97338867 -448.890625 333.41796875 C-447.75947266 333.10375977 -447.75947266 333.10375977 -446.60546875 332.78320312 C-445.43951172 332.48833008 -445.43951172 332.48833008 -444.25 332.1875 C-443.45722656 331.97158203 -442.66445313 331.75566406 -441.84765625 331.53320312 C-439.90274801 331.00596896 -437.95189264 330.50075848 -436 330 C-437.75831971 325.2798505 -440.18987954 321.13520259 -442.7578125 316.81640625 C-444.28051056 313.36399965 -444.73076364 311.73244468 -444 308 C-440.80324049 302.84728225 -436.2175003 299.3602174 -431.31779861 295.95728493 C-418.32232375 286.80034291 -405.42185496 275.99914989 -402.24108887 259.71551514 C-401.07974369 251.26433725 -400.79671876 242.83151544 -400.8046875 234.30859375 C-400.80537766 233.5704319 -400.80606783 232.83227006 -400.80677891 232.07173967 C-400.84290399 222.87324821 -401.15845445 213.69177383 -401.57352567 204.50348055 C-402.0310218 194.2752294 -402.25010084 184.04084038 -402.45187569 173.80477238 C-402.46686068 173.04956773 -402.48184568 172.29436308 -402.49728477 171.51627344 C-402.52713276 170.01054707 -402.55655237 168.50481214 -402.58553135 166.9990688 C-402.67543668 162.62690045 -402.81840674 158.26069354 -403.01029277 153.891837 C-403.09725516 151.83860802 -403.16891501 149.78546441 -403.2348175 147.73146057 C-403.31737485 145.23970915 -403.42643041 142.74862742 -403.56782532 140.25952148 C-403.71274769 134.84630559 -403.69907691 131.05645918 -400.09675598 126.82519531 C-398.75333062 125.52680299 -397.38581687 124.25304665 -396 123 C-394.4574033 121.4214706 -392.92068643 119.8371816 -391.38874817 118.24830627 C-389.6247192 116.47236039 -387.85801431 114.69906978 -386.08911133 112.92797852 C-385.10917159 111.9433991 -384.12942554 110.95862688 -383.14985657 109.97367859 C-380.51208885 107.32291162 -377.87109923 104.67537917 -375.22905946 102.02887082 C-373.57673191 100.37359746 -371.92498669 98.71774512 -370.2734127 97.06171989 C-365.09973469 91.87441151 -359.92409201 86.68907556 -354.74553376 81.50663906 C-348.77670369 75.53331288 -342.8145014 69.55347249 -336.85787374 63.56797844 C-332.24218805 58.93070385 -327.62078043 54.29918326 -322.99495715 49.67202133 C-320.2358552 46.91187109 -317.47924058 44.14934094 -314.72855568 41.38080025 C-312.14709028 38.78289842 -309.55861181 36.19219854 -306.96452141 33.60690498 C-305.55999557 32.20351996 -304.16291519 30.79269585 -302.76605225 29.38168335 C-301.9292543 28.55045456 -301.09245636 27.71922577 -300.2303009 26.86280823 C-299.14331768 25.77362516 -299.14331768 25.77362516 -298.03437519 24.66243839 C-294.70566123 21.94230009 -291.46973263 21.87501399 -287.27550125 21.87695217 C-286.32353686 21.87496112 -285.37157246 21.87297007 -284.39076066 21.87091869 C-282.82656723 21.87528795 -282.82656723 21.87528795 -281.23077393 21.87974548 C-279.56568334 21.87846385 -279.56568334 21.87846385 -277.86695457 21.87715632 C-274.13426858 21.87550459 -270.40162718 21.88101792 -266.66894531 21.88647461 C-263.99843748 21.88675657 -261.32793242 21.88664264 -258.65742493 21.8860321 C-252.90127345 21.88550757 -247.14513331 21.88864702 -241.38898468 21.89426994 C-233.06654467 21.90239447 -224.74411014 21.90500114 -216.42166659 21.90625793 C-202.91929155 21.90844695 -189.41692255 21.91510298 -175.91455078 21.92456055 C-162.79768911 21.93373854 -149.68082908 21.94081748 -136.56396484 21.94506836 C-135.35132748 21.94546244 -135.35132748 21.94546244 -134.1141924 21.94586449 C-130.05859163 21.94716952 -126.00299086 21.94843323 -121.94739008 21.94967639 C-88.29825567 21.96004433 -54.64912858 21.97765858 -21 22 C-20.53611122 20.82167854 -20.53611122 20.82167854 -20.06285095 19.61955261 C-18.57757458 15.95887038 -16.59201866 12.6928453 -14.5625 9.3125 C-14.16740234 8.63638672 -13.77230469 7.96027344 -13.36523438 7.26367188 C-9.68774558 1.11412739 -7.25739521 -0.75076502 0 0 Z M-4 26 C-4.59349243 27.00691895 -4.59349243 27.00691895 -5.19897461 28.03417969 C-7.10997814 31.27387437 -9.02308715 34.51231926 -10.9375 37.75 C-11.28893066 38.34447937 -11.64036133 38.93895874 -12.00244141 39.55145264 C-16.24456192 46.7226221 -20.51562938 53.87491441 -24.84765625 60.9921875 C-25.23928452 61.6356311 -25.63091278 62.27907471 -26.03440857 62.9420166 C-27.94073387 66.07155302 -29.85107101 69.19858406 -31.76538086 72.32324219 C-32.45124268 73.44633789 -33.13710449 74.56943359 -33.84375 75.7265625 C-34.45412109 76.72252441 -35.06449219 77.71848633 -35.69335938 78.74462891 C-37.08354912 80.70979079 -37.08354912 80.70979079 -37 82 C-14.89 82 7.22 82 30 82 C28.38958265 77.97395662 26.72040474 74.61778218 24.54296875 70.90625 C24.03351212 70.03555878 24.03351212 70.03555878 23.51376343 69.14727783 C22.40899551 67.26247652 21.298698 65.38101661 20.1875 63.5 C19.81027802 62.85937622 19.43305603 62.21875244 19.04440308 61.55871582 C13.95311243 52.91386587 8.81229982 44.29973882 3.5625 35.75 C3.02584717 34.87021484 2.48919434 33.99042969 1.9362793 33.08398438 C1.44297119 32.28798828 0.94966309 31.49199219 0.44140625 30.671875 C0.01545166 29.9819043 -0.41050293 29.29193359 -0.84936523 28.58105469 C-1.92779764 26.84442121 -1.92779764 26.84442121 -4 26 Z M-282 40 C-282.33 71.35 -282.66 102.7 -283 135 C-285 140 -285 140 -288 142 C-289.88402843 142.26171303 -289.88402843 142.26171303 -292.04325867 142.2784729 C-293.27115254 142.29520019 -293.27115254 142.29520019 -294.52385235 142.3122654 C-295.42178918 142.31443754 -296.31972601 142.31660969 -297.24487305 142.31884766 C-298.20671666 142.32900091 -299.16856028 142.33915417 -300.15955067 142.3496151 C-303.27693614 142.38028192 -306.39423012 142.39741649 -309.51171875 142.4140625 C-311.43478182 142.43099328 -313.3578373 142.44880949 -315.28088379 142.4675293 C-322.41633542 142.53076146 -329.55193077 142.57683374 -336.6875 142.625 C-360.6021875 142.810625 -360.6021875 142.810625 -385 143 C-385 183.59 -385 224.18 -385 266 C-380.05 268.475 -380.05 268.475 -375 271 C-374.67386719 269.73542969 -374.34773438 268.47085938 -374.01171875 267.16796875 C-373.57084848 265.50767008 -373.12941267 263.84752152 -372.6875 262.1875 C-372.47416016 261.35412109 -372.26082031 260.52074219 -372.04101562 259.66210938 C-371.82509766 258.85966797 -371.60917969 258.05722656 -371.38671875 257.23046875 C-371.19295654 256.49207764 -370.99919434 255.75368652 -370.79956055 254.99291992 C-369.8781422 252.69626712 -368.91498668 251.55284187 -367 250 C-363.80736446 248.93578815 -361.49506423 248.86044529 -358.13916016 248.83886719 C-356.93425934 248.82925964 -355.72935852 248.8196521 -354.48794556 248.80975342 C-353.18481415 248.80550354 -351.88168274 248.80125366 -350.5390625 248.796875 C-349.18769326 248.79112069 -347.83632404 248.78536299 -346.48495483 248.77960205 C-343.6520754 248.76910236 -340.81922427 248.76325292 -337.98632812 248.75976562 C-334.36253998 248.75428227 -330.73912782 248.73025378 -327.11545753 248.70179367 C-324.32385171 248.68313811 -321.53233595 248.67796016 -318.74067307 248.67642975 C-316.75705362 248.67194395 -314.77348244 248.65331245 -312.78994751 248.63446045 C-311.57874237 248.63746155 -310.36753723 248.64046265 -309.11962891 248.64355469 C-308.05612213 248.63990906 -306.99261536 248.63626343 -305.8968811 248.63250732 C-302.56607232 249.05504722 -300.6901546 250.02241594 -298 252 C-296.8815918 254.0847168 -296.8815918 254.0847168 -296.19921875 256.44921875 C-295.81733398 257.72055664 -295.81733398 257.72055664 -295.42773438 259.01757812 C-295.06131836 260.33918945 -295.06131836 260.33918945 -294.6875 261.6875 C-294.42388672 262.58017578 -294.16027344 263.47285156 -293.88867188 264.39257812 C-293.24215627 266.59073117 -292.61344255 268.79243278 -292 271 C-290.43621708 270.23177266 -288.874034 269.46028836 -287.3125 268.6875 C-286.39339844 268.23375 -285.47429687 267.78 -284.52734375 267.3125 C-281.91875062 266.02465546 -281.91875062 266.02465546 -279.375 264.1875 C-275.85923428 262.42961714 -272.76768621 262.02515741 -269 263 C-267.14414978 264.30004883 -267.14414978 264.30004883 -265.27709961 266.01953125 C-264.58115692 266.65632812 -263.88521423 267.293125 -263.16818237 267.94921875 C-262.45268219 268.62597656 -261.73718201 269.30273438 -261 270 C-259.96578415 270.97646484 -259.96578415 270.97646484 -258.91067505 271.97265625 C-254.24421576 276.43526833 -249.65844615 280.98126902 -245.07055664 285.52441406 C-243.39215926 287.18108198 -241.70751905 288.83144786 -240.0168457 290.47558594 C-237.56042558 292.86520512 -235.12418031 295.27384027 -232.69140625 297.6875 C-231.93420792 298.41686768 -231.17700958 299.14623535 -230.39686584 299.89770508 C-227.07016212 303.23769218 -225.20963669 305.22101081 -223.96362305 309.85107422 C-224.00352624 313.30524495 -224.57392788 315.1292619 -226.25 318.125 C-226.71148437 318.97449219 -227.17296875 319.82398438 -227.6484375 320.69921875 C-228.68716086 322.46745013 -229.7716221 324.20887463 -230.875 325.9375 C-231.24625 326.618125 -231.6175 327.29875 -232 328 C-231.67 328.99 -231.34 329.98 -231 331 C-227.44138093 332.19494682 -223.89963989 333.12515013 -220.2578125 334.01757812 C-219.12859375 334.31631836 -219.12859375 334.31631836 -217.9765625 334.62109375 C-217.28643066 334.7905249 -216.59629883 334.95995605 -215.88525391 335.13452148 C-213.30907749 336.31718729 -212.46242339 337.57114714 -211 340 C-210.61231995 342.88378906 -210.61231995 342.88378906 -210.59594727 346.265625 C-210.57692101 348.16779785 -210.57692101 348.16779785 -210.55751038 350.10839844 C-210.55956174 351.48893395 -210.5625497 352.86946835 -210.56640625 354.25 C-210.56184393 355.6695989 -210.55653821 357.08919558 -210.55052185 358.50878906 C-210.54159464 361.48121119 -210.54400966 364.45336457 -210.55395508 367.42578125 C-210.56545189 371.23254754 -210.54522181 375.03838719 -210.51603794 378.84503174 C-210.49768228 381.77561317 -210.49796689 384.70597219 -210.50367546 387.63659668 C-210.50382872 389.04001161 -210.49778068 390.44344157 -210.48538399 391.84680176 C-210.47048876 393.80927436 -210.4837735 395.77189957 -210.49829102 397.734375 C-210.49845718 398.85038086 -210.49862335 399.96638672 -210.49879456 401.11621094 C-211.11309752 404.65072997 -212.22652512 405.80072479 -215 408 C-217.10644531 408.91308594 -217.10644531 408.91308594 -219.328125 409.484375 C-220.52695312 409.80341797 -220.52695312 409.80341797 -221.75 410.12890625 C-222.575 410.33386719 -223.4 410.53882813 -224.25 410.75 C-225.09046875 410.97042969 -225.9309375 411.19085938 -226.796875 411.41796875 C-228.8614196 411.95756563 -230.93031945 412.48045056 -233 413 C-232.60167969 413.72445313 -232.20335937 414.44890625 -231.79296875 415.1953125 C-230.7017825 417.18652829 -229.617382 419.18147459 -228.5390625 421.1796875 C-227.42208289 423.22653846 -226.25652673 425.24711646 -225.0625 427.25 C-223.57517948 431.09953545 -223.77360465 433.04828166 -225 437 C-229.05792514 443.01512376 -234.91412217 447.99025257 -240.0871582 453.05151367 C-241.40891228 454.35012706 -242.70686233 455.67288827 -244 457 C-244 457.33 -244 457.66 -244 458 C-183.61 458 -123.22 458 -61 458 C-61.19722656 431.61546875 -61.39445312 405.2309375 -61.59765625 378.046875 C-61.68453804 361.31248093 -61.76718519 344.578226 -61.83007812 327.84375 C-61.86335666 319.04817162 -61.89770334 310.25259839 -61.93383789 301.45703125 C-61.94056348 299.80369978 -61.94056348 299.80369978 -61.94742495 298.11696768 C-62.02115217 280.37490219 -62.15505679 262.63378342 -62.31159753 244.89227733 C-62.47116843 226.65380109 -62.5651235 208.41581681 -62.59950441 190.17667127 C-62.62270979 178.94206341 -62.69570205 167.71013108 -62.83457994 156.47634795 C-62.92518144 148.74901386 -62.95143895 141.02304114 -62.92952342 133.29521582 C-62.91874403 128.85053428 -62.93398425 124.41048912 -63.02649307 119.96665573 C-63.48569605 96.75807716 -60.02545798 81.71280297 -46.09391773 62.88675547 C-42.9427476 58.5424312 -40.19889213 53.97253243 -37.4375 49.375 C-36.98129837 48.64344547 -36.52509674 47.91189093 -36.05507082 47.15816808 C-33.77939337 43.82972229 -33.77939337 43.82972229 -33 40 C-115.17 40 -197.34 40 -282 40 Z M-305.63017273 57.49464417 C-306.29047989 58.15697556 -306.95078705 58.81930695 -307.63110352 59.50170898 C-308.32375305 60.1926062 -309.01640259 60.88350342 -309.7300415 61.59533691 C-312.03219579 63.89306903 -314.33064849 66.19446467 -316.62890625 68.49609375 C-318.21916788 70.08568245 -319.809578 71.67512263 -321.40013123 73.26441956 C-324.73835617 76.60116703 -328.07475738 79.93972487 -331.40991211 83.27954102 C-335.696523 87.57184921 -339.98760628 91.85965375 -344.28006077 96.14611721 C-347.56653718 99.42898933 -350.85063938 102.71422818 -354.13401604 106.00020027 C-355.71581421 107.58266808 -357.29836257 109.16438638 -358.88165474 110.74535942 C-361.0896217 112.95080202 -363.29438305 115.15939875 -365.49829102 117.36889648 C-366.16062241 118.02920364 -366.8229538 118.6895108 -367.50535583 119.36982727 C-370.54382568 121.80744112 -370.54382568 121.80744112 -372 125 C-348.24 125 -324.48 125 -300 125 C-300 101.24 -300 77.48 -300 53 C-302.34472728 53 -304.04039047 55.91234865 -305.63017273 57.49464417 Z M-44 100 C-44 203.29 -44 306.58 -44 413 C-16.94 413 10.12 413 38 413 C38 309.71 38 206.42 38 100 C10.94 100 -16.12 100 -44 100 Z M-356 266 C-359.42394811 275.36694313 -359.42394811 275.36694313 -361 285 C-362.66666667 285.66666667 -364.33333333 286.33333333 -366 287 C-367.1446875 287.556875 -367.1446875 287.556875 -368.3125 288.125 C-372.06643468 289.34721129 -375.15784295 289.8677867 -379 289 C-382.21928275 287.30564066 -385.23604397 285.44677389 -388.265625 283.43359375 C-390.78287894 281.78471863 -390.78287894 281.78471863 -392.97613525 282.23692322 C-395.26173157 283.09868312 -396.40625439 284.04317879 -398.11621094 285.77563477 C-398.69651062 286.35616104 -399.2768103 286.93668732 -399.87469482 287.5348053 C-400.48838928 288.16398361 -401.10208374 288.79316193 -401.734375 289.44140625 C-402.37240051 290.08367661 -403.01042603 290.72594696 -403.66778564 291.38768005 C-405.70234118 293.43901726 -407.72621379 295.50054273 -409.75 297.5625 C-411.12821491 298.95576234 -412.50711325 300.34834898 -413.88671875 301.74023438 C-417.26579046 305.15236865 -420.63531864 308.57367707 -424 312 C-423.59007812 312.74765625 -423.18015625 313.4953125 -422.7578125 314.265625 C-422.21898437 315.25046875 -421.68015625 316.2353125 -421.125 317.25 C-420.59132813 318.22453125 -420.05765625 319.1990625 -419.5078125 320.203125 C-416.28591718 326.17949041 -415.53234483 329.27907114 -417 336 C-418.5625 339.4375 -418.5625 339.4375 -420 342 C-420 342.66 -420 343.32 -420 344 C-421.66635302 344.45947234 -423.33310193 344.91750895 -425 345.375 C-425.928125 345.63023437 -426.85625 345.88546875 -427.8125 346.1484375 C-431.53050332 347.1417276 -435.2665047 348.06662617 -439 349 C-439 363.85 -439 378.7 -439 394 C-430.585 396.475 -430.585 396.475 -422 399 C-415.4112 408.8832 -415.4112 408.8832 -416 416 C-417.56640625 419.2890625 -417.56640625 419.2890625 -419.5625 422.625 C-422.20539982 426.54472799 -422.20539982 426.54472799 -422.76307678 430.99420166 C-421.89912357 433.26516044 -420.9481626 434.41480055 -419.22436523 436.11621094 C-418.64383896 436.69651062 -418.06331268 437.2768103 -417.4651947 437.87469482 C-416.52142723 438.79523651 -416.52142723 438.79523651 -415.55859375 439.734375 C-414.91632339 440.37240051 -414.27405304 441.01042603 -413.61231995 441.66778564 C-411.56098274 443.70234118 -409.49945727 445.72621379 -407.4375 447.75 C-406.04423766 449.12821491 -404.65165102 450.50711325 -403.25976562 451.88671875 C-399.84763135 455.26579046 -396.42632293 458.63531864 -393 462 C-392.26394531 461.59007812 -391.52789062 461.18015625 -390.76953125 460.7578125 C-389.79371094 460.21898437 -388.81789063 459.68015625 -387.8125 459.125 C-386.84957031 458.59132813 -385.88664062 458.05765625 -384.89453125 457.5078125 C-379.33659867 454.61258716 -376.25495579 453.5157732 -370 455 C-367.00790853 455.96430204 -364.48844962 457.05889644 -362 459 C-360.1875 462.5625 -360.1875 462.5625 -359 467 C-358.01 470.63 -357.02 474.26 -356 478 C-341.48 478 -326.96 478 -312 478 C-309.98507529 472.62686744 -308.31299136 467.69418553 -306.94140625 462.19921875 C-305.31269074 458.39437712 -302.28936533 457.1558121 -298.75 455.25 C-294.37441958 453.79147319 -291.31645624 453.53226027 -287 455 C-282.86595004 457.13058664 -278.91897993 459.49838448 -275 462 C-268.75099795 456.83739055 -262.93309831 451.25317353 -257.16308594 445.56811523 C-256.04614685 444.47298368 -254.92297624 443.38417484 -253.79394531 442.30151367 C-252.1501253 440.7243286 -250.52662509 439.12856305 -248.90625 437.52734375 C-248.39807739 437.0470018 -247.88990479 436.56665985 -247.36633301 436.07176208 C-245.78262084 434.54600029 -245.78262084 434.54600029 -244 432 C-244.19938389 426.9261194 -247.15511806 423.06341647 -249.72265625 418.81640625 C-251.59400428 414.69028413 -251.49677122 411.63122472 -250.1875 407.33203125 C-246.58683909 399.69247109 -246.58683909 399.69247109 -242.3125 398.0625 C-240.889375 397.711875 -239.46625 397.36125 -238 397 C-234.7 396.01 -231.4 395.02 -228 394 C-228 379.48 -228 364.96 -228 350 C-232.82232088 348.19162967 -236.45758693 346.8405499 -241.25 345.8125 C-244.94613874 344.71671693 -246.70081795 343.79372521 -248.5625 340.375 C-249.36328125 338.21875 -249.36328125 338.21875 -250 336 C-250.36158203 334.99453125 -250.36158203 334.99453125 -250.73046875 333.96875 C-252.17085017 328.16390456 -249.94104227 324.34584696 -247.0625 319.4375 C-245.7424354 317.26597713 -244.38539208 315.13113925 -243 313 C-248.16260945 306.75099795 -253.74682647 300.93309831 -259.43188477 295.16308594 C-260.52701632 294.04614685 -261.61582516 292.92297624 -262.69848633 291.79394531 C-264.2756714 290.1501253 -265.87143695 288.52662509 -267.47265625 286.90625 C-267.9529982 286.39807739 -268.43334015 285.88990479 -268.92823792 285.36633301 C-270.45399971 283.78262084 -270.45399971 283.78262084 -273 282 C-277.05624029 282.15832635 -279.50956515 283.80540558 -282.8125 286.0625 C-288.57097739 289.59765994 -291.70339918 289.96192556 -298.35546875 288.47265625 C-302.15651524 287.22630985 -304.37012175 286.10539197 -306.38671875 282.56640625 C-307.44687933 279.72486059 -308.2715034 276.94418317 -309 274 C-309.99 270.04 -309.99 270.04 -311 266 C-325.85 266 -340.7 266 -356 266 Z M-44 430 C-46.02504813 452.64129443 -46.02504813 452.64129443 -37.75 470.75 C-29.75699989 477.28972736 -23.87275234 479.14648761 -13.515625 479.203125 C-12.29308014 479.21167511 -12.29308014 479.21167511 -11.0458374 479.22039795 C-9.32451666 479.22981936 -7.60317812 479.23637053 -5.88183594 479.24023438 C-3.2724593 479.24991666 -0.66387883 479.28095707 1.9453125 479.3125 C3.62499537 479.31903355 5.30468382 479.32428264 6.984375 479.328125 C7.75344177 479.3404718 8.52250854 479.3528186 9.31488037 479.36553955 C17.97043633 479.33062394 24.95691012 476.91647214 31.2734375 470.96484375 C41.34204297 459.5066796 38 444.60837473 38 430 C10.94 430 -16.12 430 -44 430 Z " fill="#000000" transform="translate(457,8)"/>
<path d="M0 0 C2.49452603 2.18506894 4.83367154 4.44685949 7.14453125 6.82421875 C7.77875 7.4378125 8.41296875 8.05140625 9.06640625 8.68359375 C20.11554244 20.12384981 24.66023134 35.89669148 24.49633789 51.46484375 C23.9048055 69.73889635 16.02962657 84.43609786 3.01953125 97.01171875 C-10.95952278 108.91801649 -27.52429437 111.94196653 -45.36132812 111.03125 C-61.44401359 109.69627376 -75.0019887 100.6305397 -85.59765625 88.89453125 C-97.0924035 74.54098676 -100.48661873 57.76686848 -98.85546875 39.82421875 C-96.18661709 24.06528516 -88.12891189 9.79979112 -75.26757812 0.25317383 C-52.65721656 -15.78463992 -22.63157782 -17.24458118 0 0 Z M-65.85546875 15.82421875 C-66.77779297 16.54158203 -66.77779297 16.54158203 -67.71875 17.2734375 C-76.3318295 24.85523918 -80.65579868 36.27613583 -81.765625 47.44921875 C-82.09135028 59.68515987 -77.93437219 70.16733744 -70.23046875 79.63671875 C-61.54667252 88.73324294 -49.86156324 93.63588116 -37.35546875 94.19921875 C-24.86858795 93.65729264 -13.76116602 88.53201163 -4.85546875 79.82421875 C4.47438099 68.73092489 7.42225824 56.99792842 6.37207031 42.78076172 C5.04678346 31.38500117 -1.87488475 21.83979647 -10.42578125 14.61328125 C-27.53361216 2.01619675 -49.33184328 2.68841591 -65.85546875 15.82421875 Z " fill="#000000" transform="translate(160.85546875,330.17578125)"/>
<path d="M0 0 C1.28224383 -0.00967334 1.28224383 -0.00967334 2.59039158 -0.0195421 C3.524721 -0.01644489 4.45905042 -0.01334769 5.42169285 -0.01015663 C6.41796949 -0.01468774 7.41424614 -0.01921886 8.44071299 -0.02388728 C11.78863215 -0.03657658 15.13638958 -0.03490798 18.48433018 -0.03325844 C20.88072005 -0.0392408 23.27710799 -0.04604566 25.67349339 -0.05361366 C31.51269465 -0.06947014 37.35185782 -0.07572326 43.19107621 -0.07683842 C47.93684427 -0.0777887 52.682599 -0.08189797 57.42836285 -0.08823967 C70.88176563 -0.1058516 84.33513651 -0.11507847 97.78855091 -0.11357872 C98.5138026 -0.11349881 99.23905429 -0.1134189 99.9862833 -0.11333656 C101.07548797 -0.11321392 101.07548797 -0.11321392 102.18669678 -0.1130888 C113.95866428 -0.11227564 125.73050391 -0.13142094 137.50243443 -0.1596133 C149.58807696 -0.18832877 161.6736571 -0.20215437 173.75933462 -0.20042574 C180.54525882 -0.19976144 187.33104892 -0.20527159 194.11694241 -0.22678185 C200.49699283 -0.24609842 206.87675948 -0.2463337 213.25681973 -0.23174858 C215.60099799 -0.2296513 217.94519371 -0.23441567 220.28934193 -0.2464695 C223.48443071 -0.26183743 226.67853063 -0.2526693 229.87359715 -0.23720741 C230.80569584 -0.24749454 231.73779454 -0.25778167 232.69813865 -0.26838052 C236.90389409 -0.22326605 239.1238188 -0.10945627 242.76348305 2.16317368 C245.09274957 4.6675746 245.64550703 5.66660083 246.02363682 9.06976891 C245.63949324 12.9880334 244.41857365 14.47020158 241.71113682 17.25726891 C239.43632282 18.39467591 238.19456108 18.3844284 235.66836929 18.38869667 C234.81752217 18.39253782 233.96667505 18.39637896 233.09004468 18.4003365 C232.14988957 18.39947002 231.20973447 18.39860354 230.24108982 18.3977108 C229.24652202 18.40068192 228.25195423 18.40365304 227.22724801 18.4067142 C223.87315505 18.41543038 220.51909765 18.41691191 217.16499424 18.41840172 C214.76890072 18.42302782 212.37280795 18.4280522 209.97671604 18.43344688 C203.4519143 18.44659275 196.92711998 18.45305651 190.40230823 18.45745754 C186.32942591 18.46021845 182.25654598 18.46445554 178.18366528 18.46896172 C166.91077384 18.48115592 155.63788431 18.49145477 144.36498642 18.49483681 C143.64321733 18.49505637 142.92144823 18.49527594 142.17780735 18.49550216 C141.09253663 18.49582958 141.09253663 18.49582958 139.98534125 18.49616361 C138.51918391 18.49660708 137.05302658 18.49705364 135.58686924 18.49750328 C134.85960179 18.49772471 134.13233434 18.49794614 133.38302848 18.49817428 C121.59802716 18.50212249 109.81308767 18.51957652 98.02811023 18.5428628 C85.93349757 18.56656831 73.83891595 18.5790383 61.74427968 18.58020473 C54.95163947 18.58112197 48.1590798 18.58688652 41.36646175 18.60502434 C34.97828988 18.62202183 28.59023018 18.62368391 22.20204067 18.61488533 C19.85463903 18.61411238 17.50722931 18.61849146 15.15984821 18.62834358 C11.96042605 18.64098639 8.76155251 18.63522784 5.56213474 18.62476158 C4.16194034 18.63684619 4.16194034 18.63684619 2.73345917 18.64917493 C-2.05075951 18.61245856 -5.48008752 18.49994581 -9.28886318 15.25726891 C-11.13515094 11.18005011 -11.61446281 9.21597892 -10.16386318 4.94476891 C-7.39070572 0.96990987 -4.75976743 0.00909896 0 0 Z " fill="#000000" transform="translate(130.28886318206787,217.74273109436035)"/>
<path d="M0 0 C3.9375 0.5625 3.9375 0.5625 6.375 2.375 C9.49295845 6.74014183 9.08319735 11.13779322 9.07794189 16.27963257 C9.08091302 17.18113309 9.08388414 18.0826336 9.0869453 19.01145232 C9.09564527 22.04459079 9.09714163 25.07768986 9.09863281 28.11083984 C9.10326002 30.28048284 9.10828454 32.45012501 9.11367798 34.61976624 C9.12681223 40.52262831 9.13324878 46.425479 9.13768864 52.3283534 C9.14061733 56.01379138 9.14472172 59.69922623 9.14919281 63.38466263 C9.16286961 74.90860269 9.17253573 86.43253563 9.1763947 97.95648324 C9.18087792 111.27242257 9.19843729 124.58821366 9.2273953 137.90412176 C9.2489871 148.18867847 9.25909762 158.47320629 9.26043582 168.75778544 C9.26148552 174.90431253 9.26742852 181.05074327 9.28525543 187.19724655 C9.30169314 192.97725669 9.30391254 198.7570976 9.29511642 204.53712273 C9.29434378 206.66038019 9.29871858 208.7836466 9.30857468 210.90688133 C9.3212271 213.80192434 9.31545388 216.69636188 9.30499268 219.59140015 C9.31304908 220.43468915 9.32110548 221.27797816 9.32940602 222.14682138 C9.28005634 227.97258524 8.1596503 231.3403497 3.9375 235.5625 C-3.00966256 236.35971538 -3.00966256 236.35971538 -6.65831566 233.59693146 C-9.92810937 229.46997467 -9.76402607 226.57380979 -9.69741821 221.45300293 C-9.70521817 220.53345935 -9.71301812 219.61391578 -9.72105443 218.66650724 C-9.74100518 215.5839051 -9.7251975 212.50253327 -9.70947266 209.41992188 C-9.71624738 207.21056904 -9.72514969 205.00122185 -9.73602295 202.79188538 C-9.75883978 196.78983052 -9.74996982 190.78820482 -9.73412752 184.78614235 C-9.72148103 178.50906836 -9.73320516 172.23203146 -9.74105835 165.95495605 C-9.75074165 154.73759007 -9.73518968 143.52040123 -9.70976166 132.30307692 C-9.68742295 122.13375783 -9.69130314 111.9647241 -9.71435547 101.79541016 C-9.74111713 89.98424133 -9.75107103 78.17321073 -9.73629415 66.36200571 C-9.7284933 60.11040296 -9.72747568 53.85899679 -9.74397659 47.60740662 C-9.75840493 41.73037049 -9.74842887 35.85387403 -9.71950531 29.97689629 C-9.71288584 27.81817458 -9.71480677 25.65940758 -9.72581863 23.50070381 C-9.7394512 20.55718549 -9.72238542 17.61540422 -9.69741821 14.67199707 C-9.70857182 13.81450851 -9.71972543 12.95701995 -9.73121703 12.07354689 C-9.65927478 7.71115249 -9.46304857 6.06639754 -6.65392113 2.53246307 C-4.11136617 0.5996474 -3.12174048 -0.10550614 0 0 Z " fill="#000000" transform="translate(454.0625,140.4375)"/>
<path d="M0 0 C0.97225712 -0.00339833 0.97225712 -0.00339833 1.96415579 -0.00686532 C4.14593173 -0.01321837 6.32764575 -0.01237513 8.50942993 -0.0115509 C10.06971823 -0.0145416 11.63000578 -0.01794392 13.19029236 -0.02172852 C17.4361788 -0.03058226 21.68204511 -0.03290722 25.92793989 -0.0335443 C29.46925814 -0.03449244 33.01057167 -0.03816967 36.55188811 -0.0417164 C44.90573911 -0.04986634 53.25957932 -0.05230016 61.61343384 -0.05158997 C70.23736336 -0.05098916 78.86123033 -0.06154024 87.48514402 -0.07733363 C94.88306548 -0.09040015 102.28096649 -0.09577423 109.67889941 -0.09513456 C114.10002566 -0.09487929 118.52109637 -0.09774627 122.94221115 -0.10831261 C127.10033548 -0.11797856 131.25835099 -0.11808313 135.41647911 -0.11079597 C136.94350658 -0.10974823 138.47054077 -0.11212427 139.99755669 -0.11815643 C142.08061255 -0.12585271 144.1632904 -0.1212475 146.24633789 -0.11352539 C147.41257376 -0.11407016 148.57880962 -0.11461493 149.78038597 -0.1151762 C152.68808144 0.12851074 154.33014029 0.55005145 156.75015259 2.13371277 C159.05224749 5.35664563 159.22525913 8.25367601 158.75015259 12.13371277 C156.95021484 14.83361938 155.66637959 16.67559927 152.75015259 18.13371277 C150.66872296 18.23221728 148.58406223 18.26442931 146.50030518 18.26742554 C145.52804806 18.27082387 145.52804806 18.27082387 144.53614938 18.27429086 C142.35437345 18.2806439 140.17265943 18.27980066 137.99087524 18.27897644 C136.43058695 18.28196714 134.87029939 18.28536946 133.31001282 18.28915405 C129.06412637 18.2980078 124.81826007 18.30033275 120.57236528 18.30096984 C117.03104703 18.30191797 113.48973351 18.30559521 109.94841707 18.30914193 C101.59456607 18.31729188 93.24072585 18.31972569 84.88687134 18.3190155 C76.26294182 18.3184147 67.63907485 18.32896578 59.01516116 18.34475917 C51.61723969 18.35782569 44.21933869 18.36319977 36.82140577 18.36256009 C32.40027951 18.36230482 27.97920881 18.3651718 23.55809402 18.37573814 C19.39996969 18.3854041 15.24195418 18.38550867 11.08382607 18.37822151 C9.55679859 18.37717376 8.0297644 18.3795498 6.50274849 18.38558197 C4.41969263 18.39327825 2.33701477 18.38867304 0.25396729 18.38095093 C-0.91226858 18.3814957 -2.07850445 18.38204046 -3.2800808 18.38260174 C-6.21603917 18.13654616 -7.83485136 17.780772 -10.24984741 16.13371277 C-12.69505856 12.46589605 -12.972225 9.39918044 -12.24984741 5.13371277 C-8.59120511 0.37747778 -5.79003427 0.00832548 0 0 Z " fill="#000000" transform="translate(217.24984741210938,157.8662872314453)"/>
<path d="M0 0 C0.65481824 -0.00568326 1.30963648 -0.01136651 1.98429769 -0.01722199 C4.17121026 -0.0301071 6.356265 -0.00735505 8.54307556 0.0153656 C10.11366158 0.01350116 11.68424629 0.00946371 13.25482178 0.00341797 C17.51524296 -0.00655614 21.77499877 0.01461173 26.03532338 0.04189801 C30.49374052 0.0657304 34.95214452 0.06278308 39.41061401 0.0632019 C46.89661421 0.06782966 54.38236003 0.0914703 61.86827087 0.12767029 C70.52465969 0.16941884 79.1808195 0.18698606 87.83730322 0.19029003 C97.05217216 0.193889 106.26695863 0.21276217 115.48179317 0.23741031 C118.13785698 0.24364008 120.79391452 0.24727566 123.4499836 0.25044441 C127.62214326 0.25634369 131.79413917 0.27265315 135.96623039 0.29704857 C137.49808359 0.30449093 139.02995741 0.30856065 140.56182861 0.30902863 C142.65133277 0.31028585 144.74040482 0.32382679 146.82983398 0.34057617 C147.99954774 0.34522668 149.16926149 0.34987719 150.37442112 0.35466862 C153.3079575 0.61093363 154.93709911 0.96942827 157.35142517 2.61473083 C159.84301557 6.35211643 159.80935802 8.18804666 159.35142517 12.61473083 C157.21463232 16.00412639 156.17394847 17.3405564 152.35142517 18.61473083 C150.25738128 18.71277334 148.16031087 18.7497432 146.0639801 18.75517273 C144.74605972 18.76088287 143.42813934 18.76659302 142.07028198 18.7724762 C140.60621652 18.77372155 139.14215096 18.77484664 137.67808533 18.77586365 C136.13897584 18.78049204 134.5998675 18.78551673 133.0607605 18.79090881 C128.876852 18.80403184 124.69295955 18.81047745 120.50903368 18.81491947 C117.89565725 18.81785004 115.2822852 18.82195479 112.66891098 18.82642365 C104.49381742 18.84009763 96.31873388 18.84976506 88.14362967 18.85362554 C78.70356211 18.85810776 69.26363923 18.87566368 59.82361567 18.90462613 C52.52841762 18.92623212 45.23326031 18.93632922 37.9380306 18.93766665 C33.58001036 18.93871536 29.22212614 18.94463713 24.86413956 18.96248627 C20.76505729 18.97894852 16.66621358 18.98113152 12.56711006 18.97234726 C11.06307271 18.97157592 9.55902262 18.97593238 8.05501747 18.98580551 C6.0006728 18.99850004 3.94717628 18.99266279 1.89283752 18.98222351 C0.16893767 18.98442335 0.16893767 18.98442335 -1.58978844 18.98666763 C-5.98193866 18.45259886 -8.56324704 16.70005862 -11.64857483 13.61473083 C-12.28372711 8.07983236 -12.28372711 8.07983236 -11.64857483 5.61473083 C-7.97235107 1.10989701 -5.78143788 -0.009938 0 0 Z " fill="#000000" transform="translate(216.64857482910156,97.38526916503906)"/>
<path d="M0 0 C1.73501518 -0.01073296 1.73501518 -0.01073296 3.50508118 -0.02168274 C4.78043732 -0.02437164 6.05579346 -0.02706055 7.36979675 -0.02983093 C8.72156957 -0.0360949 10.07334067 -0.04274165 11.42510986 -0.04974365 C15.10288981 -0.0671593 18.78065675 -0.07770692 22.45846772 -0.08594918 C24.75574803 -0.09109811 27.05302429 -0.09717389 29.35030174 -0.10346031 C36.53654614 -0.12251391 43.72278024 -0.13674473 50.90904504 -0.14507228 C59.20701966 -0.15484659 67.50472766 -0.18117023 75.80260831 -0.22157317 C82.21456563 -0.25172308 88.62644647 -0.26654007 95.03847331 -0.26985329 C98.86895773 -0.27220507 102.69915737 -0.28118156 106.52956581 -0.30631447 C110.13377355 -0.3295809 113.73750873 -0.33383456 117.34177208 -0.32355309 C119.29341549 -0.32282101 121.24503482 -0.34192237 123.19657898 -0.36161804 C124.94428337 -0.35120232 124.94428337 -0.35120232 126.72729492 -0.34057617 C128.2429742 -0.3441587 128.2429742 -0.3441587 129.78927326 -0.34781361 C133.30907318 0.28232801 134.99168542 1.70573488 137.55412292 4.14717102 C138.94406372 6.92705262 138.73900497 9.06580362 138.55412292 12.14717102 C137.70011307 14.70920058 137.11465335 15.79164744 134.83139706 17.23983192 C132.0431353 18.35076489 129.86941282 18.40461055 126.86773682 18.41459656 C125.7083107 18.42312653 124.54888458 18.43165649 123.35432434 18.44044495 C121.45207596 18.43908539 121.45207596 18.43908539 119.51139832 18.43769836 C118.1593285 18.44368417 116.8072621 18.45048984 115.4552002 18.45805359 C111.78577858 18.47571395 108.11645026 18.48040893 104.44699025 18.48168516 C102.15404685 18.48310711 99.86112714 18.4873775 97.56818962 18.4926796 C89.56779856 18.51117883 81.56747412 18.5193502 73.56706238 18.51777649 C66.11090088 18.51657458 58.65502863 18.53768674 51.19894034 18.56926382 C44.79542367 18.59541628 38.39200154 18.60614425 31.98843187 18.60486567 C28.16470096 18.6043558 24.3412272 18.61005274 20.51754951 18.63122177 C16.92150028 18.65058751 13.32595399 18.65074059 9.72988701 18.63618851 C7.78304993 18.63310096 5.8362129 18.64978787 3.88945007 18.66706848 C2.72720413 18.6586795 1.56495819 18.65029053 0.36749268 18.64164734 C-1.14429015 18.64328164 -1.14429015 18.64328164 -2.68661404 18.64494896 C-6.20089244 18.01096437 -7.88604872 16.58469883 -10.44587708 14.14717102 C-11.87249926 11.29392665 -11.75621575 9.31262553 -11.44587708 6.14717102 C-8.00675446 0.9884871 -6.03378216 0.02554711 0 0 Z " fill="#000000" transform="translate(237.4458770751953,277.8528289794922)"/>
<path d="M0 0 C0.91884979 -0.0065712 1.83769958 -0.0131424 2.78439331 -0.01991272 C5.83372066 -0.0396691 8.88299872 -0.05131323 11.93237305 -0.0612793 C12.97239157 -0.06535482 14.01241009 -0.06943035 15.08394432 -0.07362938 C20.58802467 -0.09449962 26.09208002 -0.10879749 31.59619141 -0.11816406 C37.28602835 -0.12923339 42.97547474 -0.1636368 48.66517353 -0.20333576 C53.03605383 -0.22945991 57.40684047 -0.23785215 61.77779198 -0.24144554 C63.87537462 -0.24632199 65.97295279 -0.25796594 68.07045937 -0.27648354 C71.00562258 -0.30078642 73.93976733 -0.2999261 76.875 -0.29296875 C77.74220169 -0.30577881 78.60940338 -0.31858887 79.50288391 -0.33178711 C83.5812016 -0.29653488 85.6196547 -0.14624318 89.14762878 2.08137512 C91.74926341 4.82943811 92.08951641 5.72258774 92.4440918 9.55200195 C92.1315918 13.17700195 92.1315918 13.17700195 90.2565918 15.55200195 C86.08751331 18.7401208 82.32991207 18.33164896 77.26318359 18.33813477 C76.3443338 18.34309967 75.42548401 18.34806458 74.47879028 18.35317993 C71.42945617 18.36782255 68.38017409 18.37460731 65.33081055 18.38012695 C63.21572365 18.38587699 61.10063678 18.39163474 58.98554993 18.3973999 C54.5460282 18.40791609 50.10652462 18.41375461 45.66699219 18.41723633 C39.97722664 18.42272015 34.28770052 18.44674328 28.59801006 18.47520828 C24.22713012 18.49382952 19.85630788 18.49904001 15.48539162 18.5005722 C13.38782251 18.50360078 11.29025448 18.5116362 9.19272423 18.52475739 C6.25769206 18.54180576 3.32324514 18.53994041 0.38818359 18.53344727 C-0.4790181 18.54266205 -1.34621979 18.55187683 -2.23970032 18.56137085 C-6.93179343 18.52884242 -10.06727572 18.24770401 -13.8684082 15.17700195 C-15.46457563 11.9846671 -15.38306935 8.64238699 -14.8684082 5.17700195 C-10.64577774 -0.31241765 -6.49933255 0.02001213 0 0 Z " fill="#000000" transform="translate(283.868408203125,337.822998046875)"/>
<path d="M0 0 C1.36452049 -0.00832352 1.36452049 -0.00832352 2.75660706 -0.01681519 C5.75226131 -0.02858996 8.74639576 -0.00435991 11.74194336 0.02148438 C13.82889232 0.02319598 15.91584344 0.02312929 18.00279236 0.0213623 C22.37153761 0.02301427 26.73976893 0.04169147 31.10839844 0.07324219 C36.70620796 0.11294369 42.30334535 0.11728374 47.90126896 0.10977936 C52.20871633 0.10670912 56.51601278 0.11883177 60.82342339 0.13591003 C62.88747651 0.14293703 64.95154674 0.14606493 67.01561165 0.1452179 C69.90004493 0.14701685 72.78367455 0.16840656 75.66796875 0.1953125 C76.94531891 0.1909166 76.94531891 0.1909166 78.24847412 0.18643188 C82.89917328 0.25332109 86.00969834 0.57772168 89.76928711 3.61523438 C92.24967618 7.33581798 92.23265914 9.21320008 91.76928711 13.61523438 C89.90220206 15.98020877 88.4486728 17.27554153 85.76928711 18.61523438 C82.80565375 18.72437974 79.86516273 18.77257267 76.90087891 18.77636719 C75.98202911 18.78133209 75.06317932 18.786297 74.1164856 18.79141235 C71.06715148 18.80605498 68.0178694 18.81283973 64.96850586 18.81835938 C62.85341897 18.82410942 60.73833209 18.82986717 58.62324524 18.83563232 C54.18372352 18.84614851 49.74421993 18.85198703 45.3046875 18.85546875 C39.61492196 18.86095257 33.92539584 18.88497571 28.23570538 18.9134407 C23.86482543 18.93206194 19.49400319 18.93727243 15.12308693 18.93880463 C13.02551783 18.94183321 10.92794979 18.94986862 8.83041954 18.96298981 C5.89538737 18.98003818 2.96094046 18.97817283 0.02587891 18.97167969 C-0.84132278 18.98089447 -1.70852448 18.99010925 -2.602005 18.99960327 C-7.29409812 18.96707485 -10.4295804 18.68593643 -14.23071289 15.61523438 C-15.81715271 12.44235473 -16.19870778 8.99408446 -15.23071289 5.61523438 C-10.36996779 0.48765638 -6.90345164 -0.1077782 0 0 Z " fill="#000000" transform="translate(284.230712890625,397.384765625)"/>
</svg>
