<?xml version="1.0" encoding="UTF-8"?>
<svg version="1.1" xmlns="http://www.w3.org/2000/svg" width="512" height="512">
<path d="M0 0 C1.25120447 -0.00623996 2.50240894 -0.01247993 3.7915287 -0.01890898 C7.23446971 -0.03548423 10.67696269 -0.02741056 14.11990452 -0.0149641 C17.84459407 -0.00586703 21.56920969 -0.01990628 25.29388428 -0.03088379 C32.57866198 -0.04862419 39.86327437 -0.04484909 47.14805841 -0.03323323 C53.07115181 -0.02418148 58.99419903 -0.02298242 64.91729736 -0.02732849 C66.18418866 -0.02824789 66.18418866 -0.02824789 67.47667372 -0.02918586 C69.19271582 -0.03046483 70.9087579 -0.03176168 72.62479997 -0.03307623 C88.69746537 -0.0444689 104.77003935 -0.03138896 120.84268975 -0.00987476 C134.61896783 0.00799503 148.39511107 0.00489056 162.17138672 -0.0135498 C178.18847814 -0.03497974 194.20548955 -0.04337039 210.22259331 -0.03110075 C211.93214797 -0.02982662 213.64170264 -0.02856914 215.35125732 -0.02732849 C216.19228237 -0.02671139 217.03330741 -0.02609429 217.89981806 -0.02545848 C223.8124024 -0.02201195 229.72493577 -0.02781887 235.63751221 -0.0372467 C242.84786059 -0.0484917 250.0580349 -0.04537429 257.26836348 -0.02412373 C260.94373365 -0.01364678 264.61881411 -0.00943365 268.29418182 -0.02272034 C272.28588915 -0.03693184 276.27687172 -0.01990718 280.26855469 0 C281.41964029 -0.00892289 282.5707259 -0.01784577 283.75669289 -0.02703905 C295.38059038 0.08512063 304.67512855 3.43256568 313.13427734 11.50793457 C321.95007565 20.74270151 324.78029946 30.74402373 324.52490234 43.30090332 C324.51924255 44.3729451 324.51358276 45.44498688 324.50775146 46.54951477 C324.48558249 49.93196645 324.43542296 53.31330982 324.38427734 56.69543457 C324.36418717 59.00596601 324.34594085 61.31651427 324.32958984 63.6270752 C324.285782 69.25439854 324.21906868 74.88108734 324.13427734 80.50793457 C323.58059772 80.5092911 323.02691809 80.51064763 322.4564603 80.51204526 C289.60493845 80.59278183 256.75346276 80.68377168 223.90200727 80.78798618 C219.95314505 80.80050431 216.00428257 80.8129372 212.05541992 80.82531738 C211.26930766 80.82778338 210.48319539 80.83024937 209.67326155 80.83279009 C196.96239784 80.87246038 184.25152531 80.90523301 171.54063598 80.93543439 C158.48777354 80.96660267 145.4349484 81.00523487 132.38212794 81.05072463 C124.33475293 81.07853704 116.28740504 81.1006013 108.23999503 81.11519708 C102.05817586 81.1270345 95.87643302 81.14928136 89.69465828 81.17531776 C87.16680122 81.18435799 84.63892966 81.19007543 82.11105728 81.19214821 C51.61641969 81.01785817 51.61641969 81.01785817 26.19287109 96.38684082 C12.90340377 110.59480265 12.974254 128.13250199 12.96630859 146.42980957 C12.96308874 148.17942328 12.95972414 149.92903673 12.95622253 151.6786499 C12.95025647 155.33659488 12.94838001 158.99451632 12.94897461 162.65246582 C12.94907604 167.30651431 12.93543255 171.96040958 12.9182024 176.61442184 C12.90700456 180.22642694 12.90505778 183.8383959 12.90558434 187.45041656 C12.90441558 189.16456886 12.90005703 190.87872244 12.89225197 192.59285736 C12.8132258 211.74141187 14.11187903 228.08562279 28.01318359 242.44934082 C40.33493849 253.97453782 55.1075923 255.65039037 71.23902893 255.66615295 C72.8676504 255.67355992 72.8676504 255.67355992 74.52917331 255.68111652 C78.14957437 255.69641494 81.76995779 255.70483131 85.39038086 255.71325684 C87.99266208 255.72284138 90.59494177 255.7328518 93.19721985 255.74325562 C98.79066299 255.76494804 104.38410855 255.78311873 109.97757149 255.79886055 C118.06466303 255.8216254 126.15172899 255.84975884 134.23879873 255.87917983 C147.36125488 255.92677492 160.48372153 255.97006086 173.60620117 256.01062012 C186.34937354 256.05001627 199.0925366 256.09145229 211.83569336 256.13562012 C213.01499684 256.13970653 213.01499684 256.13970653 214.21812464 256.14387549 C218.16248385 256.15755564 222.10684293 256.17127578 226.05120194 256.1850158 C258.74554116 256.29885352 291.43989977 256.4056908 324.13427734 256.50793457 C324.17669191 259.21643477 324.20757001 261.92426081 324.23193359 264.63293457 C324.24502563 265.39348145 324.25811768 266.15402832 324.27160645 266.93762207 C324.34377609 277.65337052 320.50729989 285.78451095 313.13427734 293.50793457 C303.53342258 302.6732118 293.26012577 305.11657609 280.26855469 305.01586914 C279.01735022 305.0221091 277.76614574 305.02834907 276.47702599 305.03477812 C273.03408498 305.05135337 269.591592 305.0432797 266.14865017 305.03083324 C262.42396062 305.02173617 258.69934499 305.03577542 254.97467041 305.04675293 C247.68989271 305.06449333 240.40528032 305.06071823 233.12049627 305.04910237 C227.19740288 305.04005062 221.27435566 305.03885156 215.35125732 305.04319763 C214.08436603 305.04411703 214.08436603 305.04411703 212.79188097 305.045055 C211.07583887 305.04633397 209.35979679 305.04763082 207.64375472 305.04894537 C191.57108932 305.06033804 175.49851534 305.0472581 159.42586493 305.0257439 C145.64958685 305.00787411 131.87344362 305.01097858 118.09716797 305.02941895 C102.08007654 305.05084888 86.06306514 305.05923953 70.04596138 305.04696989 C68.33640672 305.04569576 66.62685205 305.04443828 64.91729736 305.04319763 C64.07627232 305.04258053 63.23524728 305.04196343 62.36873662 305.04132763 C56.45615229 305.03788109 50.54361892 305.04368801 44.63104248 305.05311584 C37.42069409 305.06436084 30.21051978 305.06124343 23.00019121 305.03999287 C19.32482104 305.02951592 15.64974057 305.02530279 11.97437286 305.03858948 C7.98266554 305.05280098 3.99168297 305.03577632 0 305.01586914 C-1.15108561 305.02479203 -2.30217121 305.03371491 -3.4881382 305.04290819 C-15.1120357 304.93074851 -24.40657386 301.58330346 -32.86572266 293.50793457 C-45.01586811 280.78035646 -44.44707966 266.80640429 -44.38330078 250.21887207 C-44.38872627 247.85088674 -44.39585133 245.4829048 -44.40454102 243.1149292 C-44.42272622 236.70587078 -44.4157265 230.29707087 -44.40302467 223.88800812 C-44.39589479 219.88018829 -44.39726165 215.87238597 -44.40098572 211.86456299 C-44.40159865 211.19759191 -44.40221158 210.53062083 -44.40284309 209.84343851 C-44.40412209 208.48816441 -44.40541895 207.13289033 -44.40673345 205.77761626 C-44.41811804 193.09278924 -44.40505898 180.40807818 -44.38353199 167.72327018 C-44.3656629 156.85781383 -44.36876761 145.99252846 -44.38720703 135.1270752 C-44.40865138 122.48519137 -44.4170196 109.84340896 -44.40475798 97.20150948 C-44.40348389 95.85144172 -44.4022264 94.50137394 -44.40098572 93.15130615 C-44.40036862 92.48718417 -44.39975151 91.82306218 -44.39911571 91.13881528 C-44.39567347 86.4765594 -44.40166405 81.8144037 -44.41090393 77.15216064 C-44.42248907 70.86800203 -44.41438757 64.58416518 -44.3913269 58.3000412 C-44.38605411 55.9987008 -44.38752898 53.69733315 -44.39637756 51.39600372 C-44.45058201 35.86217213 -44.15057823 23.32910011 -32.86572266 11.50793457 C-23.26486789 2.34265734 -12.99157108 -0.10070695 0 0 Z " fill="#000000" transform="translate(67.86572265625,183.4920654296875)"/>
<path d="M0 0 C1.20406738 -0.00644889 2.40813476 -0.01289778 3.64868903 -0.0195421 C5.61997098 -0.01489629 5.61997098 -0.01489629 7.63107681 -0.01015663 C9.048062 -0.0138946 10.46504514 -0.0184967 11.882025 -0.02388728 C15.77132786 -0.03611475 19.66054469 -0.03585711 23.54986238 -0.03349853 C27.74631989 -0.03309029 31.94274983 -0.04413016 36.13919449 -0.05361366 C44.35940653 -0.07022349 52.57958988 -0.07572321 60.79981729 -0.07683842 C67.48246876 -0.07778895 74.16511077 -0.08189948 80.84775925 -0.08823967 C99.7977683 -0.10585241 118.7477547 -0.11507855 137.697772 -0.11357872 C139.23003223 -0.11345885 139.23003223 -0.11345885 140.79324722 -0.11333656 C141.81600259 -0.1132548 142.83875796 -0.11317304 143.89250591 -0.1130888 C160.46558171 -0.112276 177.0385666 -0.13141211 193.6116161 -0.1596133 C210.6321076 -0.18834711 227.65255478 -0.2021533 244.67307115 -0.20042574 C254.22740788 -0.19976199 263.78164933 -0.20524778 273.3359642 -0.22678185 C281.47126652 -0.24500022 289.60643036 -0.24933562 297.74174425 -0.235763 C301.89086771 -0.22923652 306.03972556 -0.22910442 310.1888237 -0.2464695 C313.99127227 -0.26221977 317.79324507 -0.25931702 321.59568217 -0.24190123 C323.61409526 -0.23738944 325.63252322 -0.25247335 327.65087867 -0.26838052 C337.59984247 -0.19303542 345.9487089 1.60797537 353.38602066 8.55414391 C360.12400979 16.04843794 362.21819001 23.72530367 362.207798 33.60809898 C362.21451523 34.53086128 362.22123245 35.45362358 362.22815323 36.40434837 C362.24710125 39.4452209 362.25105588 42.48587232 362.25320816 45.52680016 C362.25963848 47.64900871 362.26636701 49.77121637 362.27338028 51.89342308 C362.28534518 56.33935157 362.28906192 60.78520241 362.28787613 65.23114586 C362.28767303 70.91377774 362.31496981 76.59590902 362.34942055 82.27842236 C362.37171444 86.661482 362.37571289 91.04442167 362.37465668 95.4275322 C362.37700908 97.52179946 362.38581218 99.61607021 362.40132141 101.71028137 C362.42103077 104.64662397 362.41512368 107.58189344 362.4031105 110.51825523 C362.41434952 111.37414238 362.42558853 112.23002953 362.43716812 113.11185265 C362.34101191 122.41297452 358.30191328 130.55046542 351.91727066 137.25726891 C345.86577035 142.02585115 339.58794644 144.50400884 331.83174801 144.51453781 C330.02472189 144.52421115 330.02472189 144.52421115 328.18119019 144.53407991 C326.86632011 144.53098271 325.55145002 144.5278855 324.19673538 144.52469444 C322.7790375 144.5284324 321.36134168 144.5330345 319.94364911 144.53842509 C316.05241565 144.55065253 312.16126818 144.55039493 308.27001989 144.54803634 C304.07153651 144.54762811 299.87308067 144.5586679 295.67461014 144.56815147 C287.4507231 144.58476094 279.22686473 144.59026099 271.00296231 144.59137623 C264.31791858 144.59232671 257.6328843 144.596437 250.94784355 144.60277748 C231.99276884 144.62038958 213.03771677 144.62961638 194.08263382 144.62811653 C193.06086427 144.62803662 192.03909472 144.62795671 190.98636246 144.62787437 C189.96334478 144.62779261 188.9403271 144.62771085 187.88630889 144.62762661 C171.30609103 144.62681367 154.725964 144.64595339 138.14577242 144.67415111 C121.11963569 144.70287867 104.09354326 144.71669148 87.06738168 144.71496356 C77.50916445 144.71429962 67.95104246 144.71979351 58.39284706 144.74131966 C50.25495432 144.75952973 42.11719999 144.7638802 33.97929569 144.75030081 C29.82827091 144.74377033 25.67751167 144.74365672 21.52651215 144.76100731 C17.72349896 144.77673971 13.92096184 144.77387304 10.11796025 144.75643905 C8.09681973 144.75191977 6.07566443 144.76702513 4.05458134 144.78291833 C-3.23059806 144.7276559 -8.7439869 143.945538 -15.08272934 140.25726891 C-15.89226059 139.78805016 -16.70179184 139.31883141 -17.53585434 138.83539391 C-24.18022882 133.92433451 -27.87842777 128.22047472 -30.08272934 120.25726891 C-30.37414876 117.14479154 -30.37654818 114.04681612 -30.37325668 110.92230797 C-30.38333252 109.54057396 -30.38333252 109.54057396 -30.39361191 108.13092613 C-30.41256166 105.09486003 -30.4165148 102.05901542 -30.41866684 99.02289391 C-30.4250976 96.90308098 -30.43182617 94.78326895 -30.43883896 92.66345787 C-30.45080471 88.22172553 -30.45452057 83.78007091 -30.45333481 79.33832359 C-30.45313183 73.6647577 -30.48041535 67.9916939 -30.51487923 62.31824684 C-30.5371898 57.93943586 -30.54117105 53.56074484 -30.54011536 49.18188286 C-30.54246576 47.09123316 -30.55125749 45.00057988 -30.56678009 42.9099865 C-30.58652106 39.97624313 -30.58056984 37.04357103 -30.56856918 34.10980797 C-30.5798082 33.2575161 -30.59104721 32.40522423 -30.6026268 31.52710533 C-30.51375517 22.91605233 -27.7087525 15.13020785 -21.78585434 8.78851891 C-15.48513098 3.12364836 -8.53302742 0.01158957 0 0 Z M38.91727066 45.25726891 C38.00906701 48.51085573 38.00906701 48.51085573 37.66727066 52.00726891 C37.51773941 53.17773766 37.36820816 54.34820641 37.21414566 55.55414391 C37.11617691 56.44617516 37.01820816 57.33820641 36.91727066 58.25726891 C36.4209816 57.89633141 35.92469254 57.53539391 35.41336441 57.16351891 C30.8328465 54.03451237 27.64574958 52.2658014 21.91727066 53.25726891 C19.35388377 54.73720046 19.35388377 54.73720046 17.91727066 57.25726891 C17.25060399 60.25726891 17.25060399 60.25726891 17.91727066 63.25726891 C20.74947555 67.10906756 24.78110042 69.03010032 28.91727066 71.25726891 C28.91727066 71.91726891 28.91727066 72.57726891 28.91727066 73.25726891 C26.76492691 74.69476891 26.76492691 74.69476891 23.97977066 76.25726891 C20.29339858 78.11804785 20.29339858 78.11804785 17.91727066 81.25726891 C17.5322369 84.79957952 17.49791107 86.61984233 19.47977066 89.63226891 C22.94099436 91.93975137 24.81172214 91.87310118 28.91727066 91.25726891 C31.75947837 89.81874346 34.34326461 88.12927331 36.91727066 86.25726891 C37.01523941 87.14930016 37.11320816 88.04133141 37.21414566 88.96039391 C37.36367691 90.13086266 37.51320816 91.30133141 37.66727066 92.50726891 C37.80648941 93.66742516 37.94570816 94.82758141 38.08914566 96.02289391 C39.01716631 99.64742737 39.97059438 101.00906404 42.91727066 103.25726891 C45.91727066 103.92393557 45.91727066 103.92393557 48.91727066 103.25726891 C51.86394694 101.00906404 52.81737501 99.64742737 53.74539566 96.02289391 C53.88461441 94.86273766 54.02383316 93.70258141 54.16727066 92.50726891 C54.31680191 91.33680016 54.46633316 90.16633141 54.62039566 88.96039391 C54.71836441 88.06836266 54.81633316 87.17633141 54.91727066 86.25726891 C55.41355972 86.61820641 55.90984879 86.97914391 56.42117691 87.35101891 C61.00169482 90.48002545 64.18879174 92.24873641 69.91727066 91.25726891 C72.48065755 89.77733735 72.48065755 89.77733735 73.91727066 87.25726891 C74.66742261 84.30035181 74.66742261 84.30035181 73.91727066 81.25726891 C70.80674046 77.32336307 67.47096375 75.26936585 62.91727066 73.25726891 C62.91727066 72.59726891 62.91727066 71.93726891 62.91727066 71.25726891 C65.06961441 69.81976891 65.06961441 69.81976891 67.85477066 68.25726891 C71.54114274 66.39648996 71.54114274 66.39648996 73.91727066 63.25726891 C74.30230442 59.71495829 74.33663025 57.89469548 72.35477066 54.88226891 C68.89354696 52.57478644 67.02281918 52.64143663 62.91727066 53.25726891 C60.07506295 54.69579435 57.49127671 56.3852645 54.91727066 58.25726891 C54.81930191 57.36523766 54.72133316 56.47320641 54.62039566 55.55414391 C54.47086441 54.38367516 54.32133316 53.21320641 54.16727066 52.00726891 C54.02805191 50.84711266 53.88883316 49.68695641 53.74539566 48.49164391 C52.81737501 44.86711044 51.86394694 43.50547377 48.91727066 41.25726891 C43.94132496 40.42794462 41.99600198 41.36432765 38.91727066 45.25726891 Z M118.91727066 45.25726891 C118.00906701 48.51085573 118.00906701 48.51085573 117.66727066 52.00726891 C117.51773941 53.17773766 117.36820816 54.34820641 117.21414566 55.55414391 C117.11617691 56.44617516 117.01820816 57.33820641 116.91727066 58.25726891 C116.4209816 57.89633141 115.92469254 57.53539391 115.41336441 57.16351891 C110.8328465 54.03451237 107.64574958 52.2658014 101.91727066 53.25726891 C99.35388377 54.73720046 99.35388377 54.73720046 97.91727066 57.25726891 C97.25060399 60.25726891 97.25060399 60.25726891 97.91727066 63.25726891 C100.74947555 67.10906756 104.78110042 69.03010032 108.91727066 71.25726891 C108.91727066 71.91726891 108.91727066 72.57726891 108.91727066 73.25726891 C106.76492691 74.69476891 106.76492691 74.69476891 103.97977066 76.25726891 C100.29339858 78.11804785 100.29339858 78.11804785 97.91727066 81.25726891 C97.5322369 84.79957952 97.49791107 86.61984233 99.47977066 89.63226891 C102.94099436 91.93975137 104.81172214 91.87310118 108.91727066 91.25726891 C111.75947837 89.81874346 114.34326461 88.12927331 116.91727066 86.25726891 C117.01523941 87.14930016 117.11320816 88.04133141 117.21414566 88.96039391 C117.36367691 90.13086266 117.51320816 91.30133141 117.66727066 92.50726891 C117.80648941 93.66742516 117.94570816 94.82758141 118.08914566 96.02289391 C119.01716631 99.64742737 119.97059438 101.00906404 122.91727066 103.25726891 C125.91727066 103.92393557 125.91727066 103.92393557 128.91727066 103.25726891 C131.86394694 101.00906404 132.81737501 99.64742737 133.74539566 96.02289391 C133.88461441 94.86273766 134.02383316 93.70258141 134.16727066 92.50726891 C134.31680191 91.33680016 134.46633316 90.16633141 134.62039566 88.96039391 C134.71836441 88.06836266 134.81633316 87.17633141 134.91727066 86.25726891 C135.41355972 86.61820641 135.90984879 86.97914391 136.42117691 87.35101891 C141.00169482 90.48002545 144.18879174 92.24873641 149.91727066 91.25726891 C152.48065755 89.77733735 152.48065755 89.77733735 153.91727066 87.25726891 C154.66742261 84.30035181 154.66742261 84.30035181 153.91727066 81.25726891 C150.80674046 77.32336307 147.47096375 75.26936585 142.91727066 73.25726891 C142.91727066 72.59726891 142.91727066 71.93726891 142.91727066 71.25726891 C145.06961441 69.81976891 145.06961441 69.81976891 147.85477066 68.25726891 C151.54114274 66.39648996 151.54114274 66.39648996 153.91727066 63.25726891 C154.30230442 59.71495829 154.33663025 57.89469548 152.35477066 54.88226891 C148.89354696 52.57478644 147.02281918 52.64143663 142.91727066 53.25726891 C140.07506295 54.69579435 137.49127671 56.3852645 134.91727066 58.25726891 C134.81930191 57.36523766 134.72133316 56.47320641 134.62039566 55.55414391 C134.47086441 54.38367516 134.32133316 53.21320641 134.16727066 52.00726891 C134.02805191 50.84711266 133.88883316 49.68695641 133.74539566 48.49164391 C132.81737501 44.86711044 131.86394694 43.50547377 128.91727066 41.25726891 C123.94132496 40.42794462 121.99600198 41.36432765 118.91727066 45.25726891 Z M198.91727066 45.25726891 C198.00906701 48.51085573 198.00906701 48.51085573 197.66727066 52.00726891 C197.51773941 53.17773766 197.36820816 54.34820641 197.21414566 55.55414391 C197.11617691 56.44617516 197.01820816 57.33820641 196.91727066 58.25726891 C196.4209816 57.89633141 195.92469254 57.53539391 195.41336441 57.16351891 C190.8328465 54.03451237 187.64574958 52.2658014 181.91727066 53.25726891 C179.35388377 54.73720046 179.35388377 54.73720046 177.91727066 57.25726891 C177.25060399 60.25726891 177.25060399 60.25726891 177.91727066 63.25726891 C180.74947555 67.10906756 184.78110042 69.03010032 188.91727066 71.25726891 C188.91727066 71.91726891 188.91727066 72.57726891 188.91727066 73.25726891 C186.76492691 74.69476891 186.76492691 74.69476891 183.97977066 76.25726891 C180.29339858 78.11804785 180.29339858 78.11804785 177.91727066 81.25726891 C177.5322369 84.79957952 177.49791107 86.61984233 179.47977066 89.63226891 C182.94099436 91.93975137 184.81172214 91.87310118 188.91727066 91.25726891 C191.75947837 89.81874346 194.34326461 88.12927331 196.91727066 86.25726891 C197.01523941 87.14930016 197.11320816 88.04133141 197.21414566 88.96039391 C197.36367691 90.13086266 197.51320816 91.30133141 197.66727066 92.50726891 C197.80648941 93.66742516 197.94570816 94.82758141 198.08914566 96.02289391 C199.01716631 99.64742737 199.97059438 101.00906404 202.91727066 103.25726891 C205.91727066 103.92393557 205.91727066 103.92393557 208.91727066 103.25726891 C211.86394694 101.00906404 212.81737501 99.64742737 213.74539566 96.02289391 C213.88461441 94.86273766 214.02383316 93.70258141 214.16727066 92.50726891 C214.31680191 91.33680016 214.46633316 90.16633141 214.62039566 88.96039391 C214.71836441 88.06836266 214.81633316 87.17633141 214.91727066 86.25726891 C215.41355972 86.61820641 215.90984879 86.97914391 216.42117691 87.35101891 C221.00169482 90.48002545 224.18879174 92.24873641 229.91727066 91.25726891 C232.48065755 89.77733735 232.48065755 89.77733735 233.91727066 87.25726891 C234.66742261 84.30035181 234.66742261 84.30035181 233.91727066 81.25726891 C230.80674046 77.32336307 227.47096375 75.26936585 222.91727066 73.25726891 C222.91727066 72.59726891 222.91727066 71.93726891 222.91727066 71.25726891 C225.06961441 69.81976891 225.06961441 69.81976891 227.85477066 68.25726891 C231.54114274 66.39648996 231.54114274 66.39648996 233.91727066 63.25726891 C234.30230442 59.71495829 234.33663025 57.89469548 232.35477066 54.88226891 C228.89354696 52.57478644 227.02281918 52.64143663 222.91727066 53.25726891 C220.07506295 54.69579435 217.49127671 56.3852645 214.91727066 58.25726891 C214.81930191 57.36523766 214.72133316 56.47320641 214.62039566 55.55414391 C214.47086441 54.38367516 214.32133316 53.21320641 214.16727066 52.00726891 C214.02805191 50.84711266 213.88883316 49.68695641 213.74539566 48.49164391 C212.81737501 44.86711044 211.86394694 43.50547377 208.91727066 41.25726891 C203.94132496 40.42794462 201.99600198 41.36432765 198.91727066 45.25726891 Z M278.91727066 45.25726891 C278.00906701 48.51085573 278.00906701 48.51085573 277.66727066 52.00726891 C277.51773941 53.17773766 277.36820816 54.34820641 277.21414566 55.55414391 C277.11617691 56.44617516 277.01820816 57.33820641 276.91727066 58.25726891 C276.4209816 57.89633141 275.92469254 57.53539391 275.41336441 57.16351891 C270.8328465 54.03451237 267.64574958 52.2658014 261.91727066 53.25726891 C259.35388377 54.73720046 259.35388377 54.73720046 257.91727066 57.25726891 C257.25060399 60.25726891 257.25060399 60.25726891 257.91727066 63.25726891 C260.74947555 67.10906756 264.78110042 69.03010032 268.91727066 71.25726891 C268.91727066 71.91726891 268.91727066 72.57726891 268.91727066 73.25726891 C266.76492691 74.69476891 266.76492691 74.69476891 263.97977066 76.25726891 C260.29339858 78.11804785 260.29339858 78.11804785 257.91727066 81.25726891 C257.5322369 84.79957952 257.49791107 86.61984233 259.47977066 89.63226891 C262.94099436 91.93975137 264.81172214 91.87310118 268.91727066 91.25726891 C271.75947837 89.81874346 274.34326461 88.12927331 276.91727066 86.25726891 C277.01523941 87.14930016 277.11320816 88.04133141 277.21414566 88.96039391 C277.36367691 90.13086266 277.51320816 91.30133141 277.66727066 92.50726891 C277.80648941 93.66742516 277.94570816 94.82758141 278.08914566 96.02289391 C279.01716631 99.64742737 279.97059438 101.00906404 282.91727066 103.25726891 C285.91727066 103.92393557 285.91727066 103.92393557 288.91727066 103.25726891 C291.86394694 101.00906404 292.81737501 99.64742737 293.74539566 96.02289391 C293.88461441 94.86273766 294.02383316 93.70258141 294.16727066 92.50726891 C294.31680191 91.33680016 294.46633316 90.16633141 294.62039566 88.96039391 C294.71836441 88.06836266 294.81633316 87.17633141 294.91727066 86.25726891 C295.41355972 86.61820641 295.90984879 86.97914391 296.42117691 87.35101891 C301.00169482 90.48002545 304.18879174 92.24873641 309.91727066 91.25726891 C312.48065755 89.77733735 312.48065755 89.77733735 313.91727066 87.25726891 C314.66742261 84.30035181 314.66742261 84.30035181 313.91727066 81.25726891 C310.80674046 77.32336307 307.47096375 75.26936585 302.91727066 73.25726891 C302.91727066 72.59726891 302.91727066 71.93726891 302.91727066 71.25726891 C305.06961441 69.81976891 305.06961441 69.81976891 307.85477066 68.25726891 C311.54114274 66.39648996 311.54114274 66.39648996 313.91727066 63.25726891 C314.30230442 59.71495829 314.33663025 57.89469548 312.35477066 54.88226891 C308.89354696 52.57478644 307.02281918 52.64143663 302.91727066 53.25726891 C300.07506295 54.69579435 297.49127671 56.3852645 294.91727066 58.25726891 C294.81930191 57.36523766 294.72133316 56.47320641 294.62039566 55.55414391 C294.47086441 54.38367516 294.32133316 53.21320641 294.16727066 52.00726891 C294.02805191 50.84711266 293.88883316 49.68695641 293.74539566 48.49164391 C292.81737501 44.86711044 291.86394694 43.50547377 288.91727066 41.25726891 C283.94132496 40.42794462 281.99600198 41.36432765 278.91727066 45.25726891 Z " fill="#000000" transform="translate(126.08272933959961,279.74273109436035)"/>
<path d="M0 0 C23.84235891 18.74148586 39.02356306 44.54909674 43.28955078 74.69042969 C43.52763188 78.48042003 43.52538629 82.24965827 43.48486328 86.04589844 C43.48284912 86.9587561 43.48083496 87.87161377 43.47875977 88.81213379 C43.46842841 92.16745145 43.44050781 95.52269653 43.41455078 98.87792969 C43.37330078 106.40605469 43.33205078 113.93417969 43.28955078 121.69042969 C24.80955078 121.69042969 6.32955078 121.69042969 -12.71044922 121.69042969 C-13.08544922 106.56542969 -13.08544922 106.56542969 -13.18847656 101.88916016 C-13.73151537 82.60759657 -16.1238784 65.43154977 -29.71044922 50.69042969 C-43.43310629 38.04255415 -58.27045321 34.85088983 -76.24462891 35.515625 C-86.40585073 36.23596508 -94.62584115 40.80952931 -102.71044922 46.69042969 C-103.66177734 47.33044922 -103.66177734 47.33044922 -104.63232422 47.98339844 C-114.32872807 55.21122241 -120.43001921 68.12539179 -122.71044922 79.69042969 C-123.9804547 88.50102655 -124.0305434 97.4320492 -124.27294922 106.31542969 C-124.41732422 111.38917969 -124.56169922 116.46292969 -124.71044922 121.69042969 C-143.19044922 121.69042969 -161.67044922 121.69042969 -180.71044922 121.69042969 C-180.79294922 114.32730469 -180.87544922 106.96417969 -180.96044922 99.37792969 C-180.99686523 97.09717529 -181.03328125 94.8164209 -181.07080078 92.46655273 C-181.22107869 76.35720749 -179.74508777 60.72502778 -173.02294922 45.87792969 C-172.50921753 44.70786377 -172.50921753 44.70786377 -171.98510742 43.51416016 C-159.6896545 16.37572324 -137.36990801 -4.85878175 -109.60644531 -15.60302734 C-72.77110208 -29.32971847 -31.27132316 -23.94224628 0 0 Z " fill="#000000" transform="translate(276.71044921875,46.3095703125)"/>
</svg>
